<svg width="56" height="72" viewBox="0 0 56 72" fill="none" xmlns="http://www.w3.org/2000/svg">
<g opacity="0.9">
<path d="M4.38845 67.7016L4.31678 67.6636L4.16138 67.5325L4.12448 67.4981L4.05849 67.4258L3.98044 67.3205L3.83142 67.0769V57.5094V57.1856V56.5687V56.2657V55.6889V55.4052V54.8672V54.6028V54.102V53.8563L3.83213 53.3906V53.162L3.83284 52.7307V52.5194L3.83426 52.121V51.9254L3.83568 51.5579L3.83639 51.3773L3.83781 51.0392L3.83852 50.8737L3.84065 50.5642L3.84136 50.4123L3.84419 50.1286L3.84561 49.9903L3.84845 49.7317L3.84987 49.6056L3.85342 49.3706L3.85555 49.2559L3.8598 49.0424L3.86193 48.9386L3.8669 48.7465L3.86974 48.6527L3.87542 48.4793L3.88109 48.3102L3.89528 48.0229L3.90238 47.8868L3.92083 47.6554L3.93005 47.5458L3.95205 47.3595L3.96341 47.2707L3.98966 47.1159L4.01733 46.9676L4.08829 46.7161L4.22028 46.3106L4.30969 46.0412L4.54172 45.5146L4.66661 45.2546L4.96251 44.7531L5.11862 44.5059L5.47129 44.0366L5.65366 43.8074L6.05458 43.3796L6.26036 43.1711L6.70102 42.7929L6.92525 42.6102L7.39784 42.2892L7.63768 42.1366L8.13369 41.8808L8.25858 41.8214L8.5119 41.716L8.89579 41.5806L8.95256 41.5627L9.05971 41.5226L9.1108 41.5025L9.1995 41.4624L9.23995 41.4424L9.29955 41.4065L9.34497 41.3621L9.34709 41.3557L9.34922 41.322L9.34993 41.3019L9.34922 41.2417L9.34781 41.2081L9.34426 41.125L9.34142 41.0813L9.33503 40.9781L9.32723 40.8706L9.30594 40.6106L9.26407 40.1778L9.24633 40.0109L9.21511 39.7085L9.1995 39.5624L9.17254 39.3002L9.15905 39.1734L9.13635 38.9477L9.12499 38.8388L9.10583 38.6461L9.09732 38.5536L9.08171 38.391L9.07461 38.3129L9.06397 38.1768L9.05829 38.1123L9.05119 37.9998L9.04765 37.9461L9.0441 37.8544L9.04126 37.767L9.04623 37.6402L9.05049 37.5829L9.06822 37.4962L9.16899 37.2626L9.21795 37.1623L9.35419 36.9839L9.38967 36.9431L9.46489 36.8721L9.57913 36.7897L9.60894 36.7718L9.67351 36.7432L9.7097 36.7296L9.81046 36.7073L9.83955 36.7023L9.9098 36.693L9.94741 36.688L10.0389 36.6801L10.0872 36.6765L10.2029 36.6694L10.2646 36.6658L10.4086 36.6601L10.4853 36.6572L10.6627 36.6515L10.7556 36.6493L10.9699 36.6443L11.0821 36.6422L11.3382 36.6386L11.4716 36.6364L11.7725 36.6321L11.9286 36.6307L12.2791 36.6264L12.4608 36.625L12.8653 36.6214L13.0739 36.6192L13.5358 36.6156L14.2979 36.6092L18.7684 36.5734L18.7875 34.8274L18.8067 33.0821L18.0779 32.3191L17.8182 32.0476L17.3371 31.4859L17.1022 31.2022L16.6701 30.6147L16.4601 30.3173L16.0762 29.7034L15.8903 29.3931L15.5553 28.7512L15.3935 28.4266L15.1062 27.756L14.9685 27.4172L14.7279 26.7172L14.6137 26.3633L14.4207 25.6325L14.1823 24.5012L14.156 24.3508L14.1113 24.019L14.09 23.8485L14.0553 23.4853L14.0396 23.3012L14.0162 22.9172L14.0063 22.7244L13.9942 22.3318L13.985 21.9392L14.0013 21.174L14.0084 20.9885L14.0318 20.636L14.0801 20.1466L14.1113 19.8988L14.1929 19.3994L14.2362 19.1501L14.3405 18.6521L14.3951 18.4042L14.52 17.9142L14.5853 17.6706L14.7294 17.1942L14.8039 16.9577L14.9657 16.5006L15.048 16.2757L15.2247 15.8444L15.3148 15.6323L15.505 15.2332L15.803 14.6766L16.0691 14.2202L16.106 10.5899L16.1429 6.9597L16.3203 6.76483L16.3607 6.71969L16.4842 6.62512L16.5523 6.57712L16.7262 6.47682L16.8191 6.42595L17.0398 6.32063L17.1555 6.26761L17.418 6.15943L17.5543 6.1057L17.8544 5.99536L18.0091 5.9402L18.3419 5.82915L18.5122 5.77398L18.8734 5.66365L19.0572 5.60848L19.4425 5.5003L19.8321 5.39211L20.6644 5.18721L21.0866 5.08762L21.9545 4.90636L22.3894 4.81967L23.2566 4.67208L24.5161 4.50014L24.5849 4.49226L24.7467 4.47793L24.8311 4.47148L25.0199 4.4593L25.1171 4.45357L25.3293 4.44354L25.4371 4.43852L25.6685 4.43064L25.9041 4.42276L26.415 4.41345L26.6747 4.40915L27.2097 4.40771H27.4779L28.0052 4.41345L28.2649 4.41703L28.7524 4.43064L28.8702 4.43422L29.093 4.44354L29.2015 4.44855L29.4031 4.46002L29.501 4.46575L29.677 4.47864L29.909 4.50014L30.1645 4.52879L30.6846 4.59829L30.9464 4.63483L31.4758 4.72009L32.0059 4.80893L33.0738 5.03102L33.606 5.14852L34.6512 5.42149L34.9095 5.49242L35.4147 5.64287L36.1534 5.88002L36.3124 5.93303L36.5955 6.03262L36.7317 6.08062L36.9716 6.17018L37.0873 6.2146L37.2881 6.29627L37.3839 6.33639L37.5485 6.41234L37.6265 6.44959L37.7585 6.52124L37.821 6.55634L37.9232 6.62512L37.9714 6.65951L38.048 6.72686L38.1367 6.82788L38.1545 6.85224L38.1836 6.90454L38.1971 6.93319L38.2198 7.01487L38.2304 7.06144L38.2467 7.19828L38.251 7.23697L38.2581 7.33011L38.2609 7.37954L38.2673 7.49561L38.2701 7.5565L38.2751 7.69908L38.278 7.7743L38.2822 7.94697L38.285 8.03724L38.2886 8.24215L38.2907 8.34961L38.295 8.59177L38.2964 8.71787L38.3007 9.00015L38.3021 9.1463L38.3056 9.47157L38.3078 9.63994L38.3113 10.0118L38.3177 10.6251L38.3532 14.2202L38.7534 15.0083L38.8513 15.2017L39.0294 15.5714L39.116 15.7541L39.2721 16.1087L39.3473 16.285L39.4836 16.6303L39.5488 16.803L39.6673 17.1462L39.7816 17.4893L39.9654 18.1979L40.0087 18.3785L40.0867 18.7539L40.1931 19.3435L40.2428 19.6459L40.3159 20.2505L40.3478 20.5536L40.3854 21.1576L40.4003 21.4599L40.4032 22.0617L40.4003 22.3626L40.3698 22.9609L40.35 23.2596L40.2854 23.8521L40.2492 24.1473L40.1513 24.7319L40.0988 25.0235L39.9689 25.5995L39.8994 25.8861L39.7376 26.4514L39.6524 26.7322L39.4587 27.2853L39.358 27.5597L39.1337 28.0978L39.0173 28.365L38.7626 28.8873L38.6313 29.1467L38.3461 29.6511L38.1999 29.9011L37.8855 30.3868L37.7245 30.6269L37.3817 31.0911L37.2065 31.3204L36.8346 31.7617L36.2457 32.3965L35.5858 33.0628L35.5645 34.6719L35.5609 34.8933L35.5588 35.3103V35.4106V35.5983L35.5595 35.69L35.5609 35.8569L35.5616 35.9372L35.5645 36.0783L35.5659 36.1449L35.5694 36.2546L35.5709 36.3054L35.5758 36.3799L35.5829 36.4451L35.6241 36.6092L40.0399 36.6106H40.3024L40.7821 36.6113H41.0141L41.4371 36.6121H41.6414L42.0104 36.6128L42.1892 36.6135L42.5086 36.6149L42.6632 36.6156L42.9379 36.6171L43.0698 36.6185L43.3026 36.6207L43.4147 36.6221L43.6106 36.6257L43.7042 36.6278L43.866 36.6321L43.9434 36.6343L44.076 36.6393L44.1392 36.6422L44.2456 36.6486L44.2967 36.6522L44.3819 36.6601L44.4216 36.6636L44.489 36.673L44.5529 36.683L44.6437 36.7066L44.7558 36.7496L44.8552 36.7955L45.0148 36.9123L45.0879 36.9753L45.1979 37.1293L45.2462 37.211L45.3065 37.403L45.3427 37.7362V37.7749L45.337 37.8945L45.3334 37.9611L45.3214 38.1338L45.3143 38.2262L45.2951 38.4497L45.2845 38.568L45.2589 38.8402L45.2447 38.9821L45.2128 39.3009L45.1965 39.4657L45.1582 39.8282L45.1383 40.0145L45.0943 40.4185L45.0212 41.0698L45.0127 41.1457L45.0056 41.2539L45.0042 41.3019L45.0155 41.3657L45.0241 41.3936L45.0595 41.4316L45.1447 41.4782L45.1674 41.4875L45.2518 41.5226L45.2994 41.5427L45.4229 41.5928L45.8635 41.7741L45.9941 41.8271L46.2509 41.9475L46.378 42.0098L46.6285 42.1481L46.8761 42.2899L47.3494 42.6216L47.5814 42.7957L48.0178 43.1855L48.2307 43.3875L48.6245 43.8281L48.8161 44.0538L49.161 44.5381L49.327 44.7853L49.618 45.3062L49.7556 45.5705L49.9855 46.1208L50.2559 46.9712L50.4163 47.6067V57.3862V67.1657L50.246 67.395L50.2233 67.4258L50.1984 67.481L50.1871 67.5075L50.1629 67.5555L50.1487 67.5784L50.0984 67.6192L50.0672 67.6386L49.9614 67.6722L49.9302 67.6808L49.8521 67.6959L49.8103 67.703L49.7088 67.7174L49.6542 67.7238L49.5257 67.736L49.4576 67.7425L49.2979 67.7532L49.2135 67.7589L49.0198 67.769L48.9176 67.7733L48.6856 67.7819L48.5649 67.7862L48.291 67.794L48.1491 67.7976L47.8305 67.8041L47.6652 67.8077L47.2983 67.8134L47.1081 67.8162L46.6888 67.8205L46.4723 67.8234L45.9969 67.827L45.7521 67.8291L45.2178 67.832L44.9425 67.8334L44.3457 67.8363L44.0384 67.8377L43.375 67.8399L43.0344 67.8406L42.3006 67.842L41.9246 67.8428L41.1177 67.8435H40.9113L40.4834 67.8442H40.2669L39.8199 67.8449H39.5942H39.1266H38.8903H38.4028H38.1566H37.6478H37.391H36.8609H36.5927H36.0406H35.7624H35.1877H34.8982H34.3014H33.9998H33.3796L33.0667 67.8442H32.4231H32.0981H31.4304H31.0933H30.4007L30.0516 67.8435H29.3342H28.9723H28.2301H27.0869H26.7428L26.0701 67.8428H25.7366H25.0845H24.7609H24.1301H23.8164H23.2048H22.9018L22.31 67.842H22.0162H21.4443H20.8766H19.798L19.2679 67.8413H18.2631H17.7693L16.8347 67.8406H16.3763L15.5099 67.8399L15.0849 67.8392H14.2837L13.8913 67.8385L13.1526 67.8377L12.7915 67.837L12.1131 67.8363L11.7817 67.8356L11.1615 67.8349L10.8578 67.8342L10.2923 67.8327L10.0162 67.832L9.50321 67.8306L9.25272 67.8299L8.78935 67.8284L8.5637 67.827L8.14717 67.8256L7.94494 67.8241L7.57311 67.822L7.39287 67.8213L7.06291 67.8184L6.90254 67.8177L6.61161 67.8148L6.47111 67.8134L6.21708 67.8105L6.09432 67.8084L5.87434 67.8055L5.76861 67.8034L5.57986 67.7998L5.48903 67.7983L5.32937 67.794L5.25274 67.7919L5.11862 67.7876L5.05476 67.7854L4.94477 67.7804L4.89226 67.7783L4.80286 67.7733L4.76099 67.7704L4.69003 67.7647L4.62333 67.7589L4.53321 67.7467L4.49418 67.7403L4.44309 67.726L4.42038 67.7181M11.8867 65.2134L11.8853 65.1991L11.8811 65.1554L11.8789 65.1317L11.8725 65.0687L11.8654 65.0013L11.8456 64.8129L11.8349 64.7112L11.8094 64.4618L11.7959 64.33L11.764 64.0277L11.7477 63.8715L11.7115 63.5262L11.693 63.3499L11.6533 62.9716L11.6334 62.7789L11.5908 62.3763L11.5263 61.7565L11.4617 61.1425L11.3368 59.9575L11.3063 59.6659L11.2467 59.0956L11.2169 58.8126L11.1594 58.2617L11.131 57.9894L11.0757 57.46L11.048 57.1985L10.9948 56.6927L10.9692 56.4433L10.9188 55.9633L10.894 55.7269L10.8472 55.2741L10.8238 55.052L10.7798 54.6293L10.7585 54.4215L10.7173 54.0303L10.6975 53.8391L10.6606 53.4816L10.6428 53.3067L10.6095 52.9843L10.5931 52.8282L10.564 52.5437L10.5499 52.4062L10.5243 52.1611L10.5122 52.0436L10.4917 51.8395L10.4661 51.583L10.4505 51.4304L10.4143 51.0757L10.3959 50.8937L10.3568 50.5147L10.337 50.3263L10.2994 49.9681L10.2909 49.8821L10.2738 49.7224L10.2504 49.5053L10.2433 49.4386L10.2249 49.2624L10.2142 49.1685L10.1901 48.9429L10.178 48.8254L10.1496 48.5603L10.1347 48.4234L10.1035 48.1275L10.0709 47.8259L10.0006 47.1682L9.8949 46.1738L9.87787 46.0111L9.8431 45.6981L9.82607 45.5433L9.79272 45.251L9.7764 45.1084L9.74447 44.8448L9.72957 44.7165L9.70047 44.4873L9.68699 44.3776L9.66145 44.1899L9.64938 44.1018L9.6288 43.9614L9.61887 43.8983L9.60397 43.8131L9.58694 43.7529L9.577 43.7429L9.53443 43.7386L9.50959 43.7393L9.44076 43.7543L9.40386 43.7644L9.31233 43.7973L9.26407 43.816L9.1548 43.864L9.04197 43.9163L8.77942 44.0595L8.36289 44.3175L8.23871 44.4006L7.99887 44.5897L7.88036 44.6879L7.65258 44.9028L7.54047 45.0139L7.32759 45.2524L7.22328 45.3742L7.02814 45.6329L6.93306 45.764L6.75779 46.0384L6.67335 46.1774L6.52078 46.4647L6.44769 46.6094L6.32068 46.9053L6.16173 47.3559L5.99852 47.8933L5.97723 56.6662L5.97581 57.2694L5.97369 58.4301L5.97298 58.7159L5.97227 59.2719V59.547L5.97156 60.08V60.343V60.8502V61.1003V61.5781V61.8131V62.2595L5.97227 62.478V62.8892L5.97298 63.0906L5.97369 63.4631L5.97439 63.6444L5.9751 63.9768L5.97581 64.1373L5.97723 64.4253L5.97794 64.5629L5.97936 64.8036L5.98007 64.9182L5.98149 65.1081L5.98291 65.1969L5.98433 65.3345L5.98575 65.3961L5.98788 65.477L5.99143 65.5322L5.99497 65.5415L6.03116 65.5573L6.05458 65.5652L6.13831 65.5781L6.18727 65.5845L6.32706 65.5945L6.40512 65.5988L6.61161 65.6067L6.66767 65.6082L6.79327 65.6117L6.85855 65.6132L7.00473 65.6153L7.07994 65.6167L7.2467 65.6189L7.33256 65.6196L7.5206 65.6211L7.61781 65.6218L7.82927 65.6232L7.93784 65.6239L8.17343 65.6246H8.29477L8.5559 65.6253H8.9774H11.9279L11.8867 65.2134ZM30.0864 52.8267V40.0281L29.7139 40.0718L29.4023 40.1083L28.8098 40.1635L28.5175 40.1879L27.9541 40.2194L27.6745 40.2323L27.1274 40.2394L26.8549 40.2402L26.3121 40.2222L26.0403 40.2108L25.4904 40.1678L25.2136 40.1427L24.6438 40.0739L24.3557 40.0367L23.754 39.9414L22.8038 39.768L22.7378 39.7551L22.5853 39.7214L22.5065 39.7028L22.3312 39.6591L22.1517 39.6125L21.7444 39.4972L21.5358 39.437L21.1001 39.3002L20.4565 39.0845L19.732 38.8302H15.5426H15.2907H14.8308H14.608L14.205 38.8309H14.0098L13.6586 38.8316H13.489L13.1867 38.833L13.0412 38.8338L12.7837 38.8352L12.6602 38.8359L12.4445 38.8388L12.3416 38.8395L12.1635 38.8431L12.079 38.8445L11.9357 38.8488L11.8676 38.851L11.7547 38.856L11.7015 38.8588L11.6157 38.8646L11.5752 38.8682L11.5128 38.8753L11.4837 38.8796L11.4404 38.8882L11.4021 38.8975L11.368 38.9205L11.3531 38.9627V38.972L11.3581 39.0387L11.3616 39.0795L11.373 39.2035L11.3794 39.2722L11.3957 39.447L11.4049 39.5409L11.4262 39.7594L11.4376 39.8741L11.4631 40.1305L11.4759 40.2624L11.505 40.5489L11.5199 40.6951L11.5518 41.0053L11.6015 41.4882L11.6355 41.8178L11.7065 42.4998L11.742 42.838L11.8087 43.4835L11.8243 43.639L11.8548 43.9299L11.869 44.0717L11.896 44.3275L11.9087 44.4507L11.93 44.6628L11.957 44.92L11.9598 44.9515L11.969 45.0375L11.974 45.0841L11.9854 45.1994L11.9918 45.2603L12.0067 45.4036L12.0145 45.4781L12.0322 45.6465L12.0414 45.7339L12.0613 45.9266L12.0719 46.0255L12.0946 46.2397L12.106 46.3493L12.1301 46.5843L12.1429 46.704L12.1692 46.9561L12.1961 47.2133L12.255 47.7736L12.2855 48.0609L12.3494 48.6699L12.3813 48.9787L12.4494 49.622L12.4835 49.9459L12.553 50.6079L12.6226 51.2713L12.7617 52.5917L12.7957 52.9163L12.8617 53.5453L12.8944 53.8548L12.9561 54.4423L12.9866 54.7296L13.0427 55.2619L13.0561 55.3909L13.0824 55.6352L13.0952 55.7556L13.1186 55.9805L13.1307 56.0909L13.1519 56.2958L13.1626 56.3953L13.1817 56.5773L13.191 56.6647L13.208 56.8223L13.2293 57.028L13.2435 57.1612L13.2754 57.4657L13.2917 57.6212L13.3251 57.9429L13.3414 58.1019L13.3712 58.4007L13.3783 58.4723L13.3918 58.6049L13.4095 58.7833L13.418 58.8728L13.4393 59.0885L13.4507 59.2024L13.4769 59.461L13.4904 59.5957L13.5202 59.8902L13.5358 60.0406L13.5692 60.363L13.6025 60.6912L13.6756 61.3969L13.7125 61.7537L13.7877 62.4708L13.8246 62.8248L13.8949 63.4925L13.9119 63.653L13.9446 63.9546L13.9602 64.1015L13.9886 64.3687L14.0027 64.4977L14.0269 64.7248L14.0389 64.8315L14.0581 65.0092L14.0673 65.0909L14.0808 65.212L14.0943 65.3209L14.1369 65.6253H22.1113H30.0864V52.8267ZM40.8105 60.4669L40.8481 60.1144L40.9212 59.4202L40.9574 59.0763L41.0276 58.41L41.0624 58.0819L41.1277 57.4607L41.1596 57.1569L41.2178 56.5967L41.232 56.4613L41.259 56.2041L41.2724 56.078L41.2966 55.8423L41.3086 55.7269L41.3313 55.5141L41.342 55.4109L41.3611 55.2225L41.3711 55.1315L41.3874 54.971L41.3952 54.8937L41.4087 54.7618L41.4151 54.6995L41.4257 54.5985L41.4371 54.4846L41.4399 54.4552L41.4484 54.3692L41.4534 54.3219L41.4654 54.203L41.4718 54.1393L41.4874 53.9888L41.4953 53.9093L41.5137 53.7294L41.5236 53.6363L41.5449 53.4293L41.5563 53.3225L41.5804 53.0897L41.5925 52.9707L41.6194 52.7157L41.6329 52.5853L41.6613 52.3094L41.6911 52.0286L41.7557 51.4139L41.7883 51.0986L41.8586 50.4273L41.8948 50.087L41.9693 49.377L42.0842 48.2873L42.1133 48.01L42.1694 47.4791L42.197 47.2176L42.2495 46.719L42.2751 46.4733L42.3248 46.0054L42.3489 45.7747L42.395 45.3363L42.4177 45.1206L42.461 44.7115L42.4823 44.5102L42.522 44.1283L42.5419 43.9406L42.5795 43.5853L42.5973 43.4112L42.632 43.0816L42.649 42.9204L42.681 42.6159L42.6966 42.4669L42.7257 42.186L42.7399 42.0485L42.7668 41.7906L42.7796 41.6645L42.8045 41.4287L42.8158 41.3134L42.8378 41.0985L42.8492 40.9931L42.869 40.7983L42.8882 40.6077L42.9208 40.2831L42.9364 40.1291L42.9613 39.8705L42.9733 39.7494L42.9918 39.5502L43.0003 39.4571L43.0131 39.3088L43.0187 39.2407L43.0258 39.1354L43.0294 39.0874L43.0329 39.0179L43.0337 38.9871V38.9448L43.023 38.8839L43.0223 38.8818L42.9989 38.8782L42.9833 38.8768L42.9322 38.8732L42.9038 38.871L42.8272 38.8682L42.7853 38.866L42.6838 38.8631L42.6306 38.8617L42.5064 38.8581L42.4411 38.8567L42.2957 38.8538L42.2197 38.8524L42.0537 38.8495L41.9686 38.8488L41.7833 38.8459L41.5939 38.8438L41.1653 38.8395L40.9432 38.8373L40.4578 38.8345L40.2095 38.833L39.6787 38.8316L38.8449 38.8302H34.6973L33.7578 39.1411L33.6287 39.1841L33.3732 39.2672L33.2484 39.3081L33.0213 39.3811L32.9134 39.4155L32.7403 39.4693L32.702 39.4814L32.6388 39.5001L32.57 39.5201L32.3216 39.5875L32.3039 52.6075L32.2854 65.6268L36.2769 65.6082L40.2684 65.5895L40.8105 60.4669ZM48.2875 56.8489V48.1082L48.13 47.5114L48.0952 47.3796L48.0122 47.1209L47.9682 46.9927L47.8681 46.7412L47.8156 46.6165L47.6992 46.3744L47.6389 46.254L47.5062 46.0212L47.4381 45.9065L47.2905 45.6852L47.2146 45.5763L47.0528 45.3671L46.9698 45.2639L46.7945 45.0683L46.5163 44.7918L46.4014 44.6857L46.1218 44.4672L45.9778 44.3597L45.6783 44.1627L45.6052 44.1169L45.4626 44.033L45.3931 43.9936L45.2632 43.9263L45.2 43.8955L45.0886 43.8489L44.9496 43.8052L44.7374 43.7622L44.6097 45.0038L44.5919 45.1743L44.5515 45.5648L44.5309 45.7647L44.489 46.1752L44.4677 46.3787L44.4287 46.7613L44.4195 46.8523L44.4017 47.0213L44.379 47.2485L44.357 47.462L44.3102 47.9147L44.2868 48.1454L44.2371 48.6269L44.1867 49.1148L44.0796 50.1422L44.0264 50.6602L43.9178 51.7033L43.8639 52.2213L43.7596 53.2186L43.734 53.4622L43.6843 53.93L43.6602 54.1607L43.6148 54.5963L43.5921 54.8091L43.5502 55.2053L43.5304 55.3973L43.4935 55.7455L43.475 55.9125L43.4438 56.2055L43.4296 56.3445L43.4048 56.5745L43.3927 56.6805L43.3757 56.8403L43.3714 56.8754L43.365 56.9313L43.3579 56.9921L43.3487 57.071L43.3253 57.2737L43.3132 57.3805L43.2877 57.6176L43.2742 57.738L43.2494 57.9801L43.2146 58.3176L43.2068 58.395L43.1891 58.5769L43.1798 58.6715L43.1585 58.8836L43.1472 58.9932L43.1238 59.2311L43.1117 59.3528L43.0855 59.6108L43.0592 59.8737L43.0017 60.4383L42.9733 60.7234L42.9144 61.303L42.8853 61.5903L42.8286 62.1441L42.8151 62.2788L42.7888 62.536L42.7761 62.6621L42.7519 62.8993L42.7399 63.0146L42.7179 63.2252L42.7079 63.327L42.6895 63.5068L42.6803 63.5928L42.6654 63.7368L42.6476 63.9059L42.6377 63.9997L42.6157 64.2111L42.6051 64.3193L42.5831 64.5392L42.5724 64.6481L42.5525 64.8509L42.5291 65.1066L42.483 65.6268L45.3852 65.6082L48.2875 65.5895V56.8489ZM29.838 37.8673L29.9892 37.8429L30.327 37.7784L30.4994 37.7448L30.8648 37.666L31.2324 37.585L31.959 37.4016L32.1329 37.3564L32.4522 37.2669L32.6055 37.2232L32.8666 37.1415L32.9276 37.1215L33.0348 37.0849L33.0859 37.067L33.171 37.0333L33.2107 37.0176L33.2718 36.9889L33.3328 36.9517L33.3484 36.938L33.3732 36.8592L33.3789 36.8349L33.3888 36.7711L33.3931 36.7367L33.4009 36.6515L33.4045 36.6063L33.4101 36.4996L33.413 36.443L33.4165 36.3119L33.4179 36.2438L33.4201 36.0876L33.4215 35.824V35.6792L33.4179 35.4113L33.4158 35.283L33.4087 35.0667L33.4066 35.0172L33.4023 34.9313L33.3995 34.8912L33.3945 34.8267L33.3917 34.7973L33.3867 34.7565L33.3775 34.7264L33.3718 34.7199L33.3151 34.7321L33.2803 34.7414L33.1774 34.7808L33.1213 34.803L32.9851 34.8639L32.7573 34.9743L32.5388 35.0853L32.0931 35.2873L31.8696 35.3848L31.4155 35.5589L31.1884 35.642L30.7279 35.7881L30.4965 35.8584L30.0303 35.9766L29.7969 36.0325L29.3257 36.1234L29.0901 36.165L28.6161 36.228L28.3791 36.256L27.903 36.2918L27.6646 36.3054L27.1877 36.3133H26.9493L26.4731 36.2932L26.2347 36.2796L25.76 36.2316L25.523 36.2044L25.0511 36.1285L24.8155 36.0876L24.3472 35.9837L24.1137 35.9286L23.6511 35.7975L23.4205 35.7287L22.9642 35.5696L22.7371 35.4865L22.2887 35.2995L21.6259 34.9886L21.5606 34.9549L21.435 34.894L21.3747 34.8654L21.2676 34.8174L21.2179 34.7959L21.142 34.7658L21.076 34.7464H21.0703L21.0597 34.7651L21.0547 34.7772L21.0455 34.8195L21.0405 34.8439L21.0327 34.9098L21.0291 34.9456L21.0228 35.0344L21.0192 35.0817L21.0142 35.1921L21.0121 35.2501L21.0086 35.3819L21.0071 35.4507L21.005 35.6033L21.0036 35.8541V36.9624L21.7983 37.2167L21.9161 37.254L22.1673 37.3285L22.2951 37.365L22.5633 37.4374L22.8351 37.5083L23.4077 37.6395L23.6958 37.7025L24.2727 37.8107L25.1022 37.9375L25.1654 37.9461L25.3115 37.9604L25.3875 37.9669L25.5556 37.9783L25.7295 37.9891L26.1311 38.0034L26.3383 38.0098L26.7868 38.0141L27.0146 38.0156L27.4822 38.0106L27.7156 38.007L28.1755 37.9934L28.4025 37.9855L28.8269 37.9633L29.0327 37.9511L29.3945 37.921L29.4804 37.9131L29.6344 37.8959L29.7089 37.8866M28.7226 33.9963L29.0078 33.9533L29.5684 33.8315L29.8458 33.7649L30.3908 33.5965L30.6605 33.507L31.1891 33.2928L31.451 33.1803L31.9619 32.9202L32.2152 32.7848L32.7076 32.4803L32.9517 32.3227L33.4265 31.9731L33.6606 31.7932L34.1155 31.3992L34.774 30.7601L34.9571 30.5688L35.2984 30.1798L35.4651 29.9835L35.7752 29.5837L35.9264 29.3824L36.2066 28.9683L36.3436 28.7591L36.5955 28.3285L36.7183 28.1107L36.9446 27.6593L37.0539 27.4308L37.2554 26.9565L37.3533 26.7165L37.5315 26.2157L37.7748 25.4326L37.8174 25.2814L37.8919 24.9992L37.9267 24.8602L37.987 24.5951L38.0431 24.3329L38.1183 23.8149L38.1346 23.6823L38.1595 23.4065L38.1708 23.2653L38.1857 22.9652L38.1928 22.8111L38.1999 22.4758L38.2042 21.922L38.2034 21.7214L38.1992 21.3646L38.1964 21.1927L38.185 20.8832L38.1786 20.7334L38.1587 20.4562L38.1481 20.3207L38.1176 20.0614L38.0849 19.8049L37.9792 19.284L37.9487 19.1479L37.8763 18.857L37.7472 18.3763L37.7039 18.2223L37.6017 17.8963L37.5478 17.7322L37.4293 17.3991L37.369 17.2329L37.2412 16.9076L37.1767 16.7471L37.0461 16.4448L36.9815 16.2972L36.8552 16.0328L36.7935 15.906L36.6785 15.6946L36.6509 15.6459L36.5983 15.5607L36.5728 15.5205L36.5253 15.4539L36.5018 15.4231L36.4607 15.3773L36.406 15.3328L36.3713 15.3142L36.2804 15.2719L36.2315 15.2504L36.1151 15.2032L36.0541 15.1788L35.9143 15.1272L35.8419 15.1014L35.6815 15.0463L35.5169 14.9897L35.1387 14.8707L34.9429 14.8098L34.5185 14.6859L34.0871 14.5619L33.1802 14.3284L32.9574 14.2739L32.5281 14.1751L31.9313 14.0497L31.71 14.0074L31.3133 13.935L31.121 13.9007L30.7676 13.8441L30.4213 13.791L29.7685 13.723L29.6017 13.7086L29.2512 13.6879L29.0717 13.6786L28.68 13.6657L28.477 13.6599L28.0229 13.6542L27.9044 13.6528L27.6518 13.6513L27.248 13.6499H27.104H26.8336L26.7009 13.6506L26.4511 13.6528L26.2063 13.6549L25.7678 13.6642L25.5556 13.67L25.1661 13.6879L24.9759 13.6986L24.6161 13.7266L24.438 13.7423L24.0868 13.7824L23.9108 13.8039L23.5475 13.8577L23.3623 13.8863L22.967 13.9558L22.3149 14.0798L22.1113 14.1192L21.6699 14.2173L21.4457 14.2682L20.9809 14.3835L20.7481 14.4423L20.2841 14.5677L20.0549 14.6307L19.6156 14.759L19.4013 14.8227L19.0103 14.9467L18.9174 14.9768L18.7435 15.0355L18.6591 15.0649L18.5051 15.12L18.4313 15.1473L18.3008 15.1981L18.239 15.2232L18.1354 15.2691L18.0865 15.2906L18.0119 15.3307L17.936 15.3823L17.9176 15.3987L17.8636 15.4747L17.8338 15.5191L17.7622 15.6416L17.7246 15.7075L17.6401 15.8673L17.5968 15.9504L17.5039 16.1374L17.4102 16.3294L17.2186 16.7536L16.9625 17.3726L16.9249 17.4714L16.8489 17.6942L16.8106 17.8089L16.7361 18.0568L16.6616 18.309L16.5253 18.8556L16.4601 19.1307L16.3529 19.6752L16.3288 19.8078L16.2883 20.0621L16.2415 20.4182L16.2273 20.5522L16.2067 20.8595L16.1982 21.0186L16.189 21.3646L16.1855 21.5409L16.1869 21.9098L16.1883 22.0954L16.1996 22.473L16.2067 22.6607L16.228 23.0318L16.2394 23.2145L16.2692 23.5634L16.2848 23.7339L16.3231 24.0456L16.3891 24.4568L16.4452 24.7427L16.5842 25.3036L16.658 25.5823L16.8312 26.1268L16.9227 26.3969L17.1292 26.9235L17.2364 27.1843L17.4748 27.6908L17.5983 27.9416L17.8672 28.4274L18.0049 28.6674L18.3029 29.1302L18.4554 29.358L18.7811 29.7965L18.9472 30.0121L19.2984 30.4248L19.478 30.6276L19.8541 31.0123L20.0456 31.2007L20.4451 31.5568L20.6481 31.7302L21.0703 32.0555L21.2839 32.2138L21.726 32.5061L21.9502 32.648L22.4114 32.9066L22.6449 33.0313L23.1239 33.2541L23.3658 33.3608L23.8618 33.5464L24.6225 33.7821L24.773 33.8215L25.0923 33.891L25.2548 33.9232L25.5933 33.9777L25.9353 34.0278L26.6505 34.0808L27.0089 34.1002L27.7185 34.0887L27.893 34.0816L28.2337 34.0551L28.4011 34.04M19.4425 12.5043L19.8328 12.3882L20.5707 12.1912L20.9369 12.0974L21.6628 11.9383L22.0282 11.8631L22.7896 11.732L22.9848 11.7004L23.3893 11.641L24.0243 11.5564L24.101 11.5464L24.2833 11.5285L24.3777 11.5199L24.592 11.5041L24.7027 11.497L24.9433 11.4834L25.0667 11.4762L25.3307 11.4654L25.5989 11.454L26.1822 11.4389L26.4781 11.4332L27.0877 11.4268L27.3921 11.4253L27.9895 11.4282L28.2826 11.4311L28.8283 11.4447L28.9603 11.4483L29.2065 11.4576L29.3264 11.4626L29.5471 11.4748L29.6535 11.4812L29.843 11.4955L30.0864 11.5199L30.5654 11.5794L31.5091 11.7241L31.9768 11.8015L32.8808 11.9791L33.1029 12.025L33.5364 12.1231L33.7507 12.1726L34.1659 12.2765L34.3709 12.3295L34.7648 12.4391L35.3296 12.6103L35.4211 12.6397L35.5928 12.6927L35.6759 12.7185L35.8178 12.7608L35.8838 12.7801L35.9803 12.8066L36.0569 12.8231H36.0612L36.069 12.7758L36.0732 12.745L36.0803 12.6404L36.0839 12.5817L36.091 12.4269L36.0938 12.3431L36.1002 12.1439L36.103 12.0393L36.1073 11.8015L36.1094 11.6782L36.113 11.4081L36.1144 11.2706L36.1165 10.9754L36.1179 10.5104V8.19773L35.4616 7.9699L35.2331 7.89109L34.7896 7.74565L34.5696 7.67544L34.1346 7.54647L33.7011 7.42181L32.824 7.21261L32.6012 7.16317L32.1428 7.07219L31.9101 7.02777L31.4261 6.94537L31.1806 6.90525L30.6626 6.82931L29.838 6.72113L29.765 6.71253L29.5961 6.69605L29.5088 6.68889L29.3144 6.67527L29.2143 6.66883L28.9979 6.65736L28.8872 6.65235L28.653 6.64375L28.4146 6.63587L27.898 6.62727L27.6362 6.62441L27.0948 6.62584L26.823 6.62727L26.2858 6.63802L26.0204 6.64447L25.5166 6.66381L25.3946 6.66954L25.1611 6.68244L25.0462 6.68889L24.8319 6.70393L24.7268 6.71181L24.5345 6.72829L24.2741 6.75695L24.0307 6.78704L23.5659 6.85152L23.3375 6.88448L22.8989 6.9554L22.6818 6.99194L22.2638 7.06932L22.0566 7.10944L21.6522 7.19613L21.2498 7.28569L20.4643 7.49489L19.2651 7.86744L18.2717 8.20202L18.2532 10.5212L18.2341 12.8403L18.3951 12.8045L18.4058 12.8016L18.4455 12.7916L18.4675 12.7859L18.5271 12.7694L18.5917 12.7522L18.7691 12.7013L18.8635 12.6741L19.0856 12.6096L19.1998 12.5767M26.2901 62.3247L26.1971 62.2946L26.0353 62.2036L25.9587 62.1534L25.831 62.0281L25.7714 61.9622L25.6791 61.8117L25.6372 61.7336L25.5833 61.5667L25.5613 61.4814L25.5478 61.3066L25.5464 61.2185L25.5755 61.0444L25.5954 60.9584L25.6699 60.7943L25.8345 60.5687L25.914 60.4855L26.0807 60.3623L26.1659 60.3072L26.3426 60.2391L26.432 60.2126L26.6179 60.2011L26.9053 60.247L26.9975 60.2749L27.1607 60.3573L27.2381 60.4017L27.3701 60.5135L27.4325 60.5722L27.5312 60.7076L27.5766 60.7771L27.6404 60.9305L27.6674 61.0086L27.6944 61.1741L27.7029 61.2579L27.6908 61.4298L27.6795 61.5165L27.6262 61.6892L27.4985 61.9428L27.4715 61.9836L27.4027 62.0574L27.3651 62.094L27.2778 62.1577L27.1863 62.2186L26.967 62.3039L26.8542 62.3397L26.62 62.3655L26.5618 62.3677L26.4497 62.3591L26.3944 62.3519M26.3383 57.9608L26.2808 57.9472L26.1744 57.9063L26.1226 57.8848L26.0289 57.8297L25.9381 57.7716L25.7941 57.6198L25.7288 57.5388L25.638 57.3532L25.5989 57.2572L25.5613 57.053L25.55 56.9499L25.5684 56.7421L25.5847 56.6389L25.6614 56.4433L25.7068 56.3481L25.8416 56.179L25.8799 56.1396L25.9665 56.0672L26.1134 55.9726L26.2092 55.9218L26.3745 55.858L26.4547 55.8322L26.6051 55.8193L26.6803 55.8186L26.8379 55.8566L27.1075 55.9712L27.1785 56.0077L27.3012 56.0937L27.3587 56.1381L27.4545 56.237L27.4985 56.2886L27.5688 56.3982L27.6007 56.4541L27.6461 56.5716L27.6667 56.6311L27.6887 56.7536L27.6972 56.8145L27.6979 56.9384L27.6951 57L27.6752 57.1218L27.6624 57.182L27.6227 57.2995L27.6 57.3575L27.5418 57.4672L27.5106 57.5202L27.4346 57.619L27.3949 57.667L27.3034 57.7516L27.2551 57.7924L27.1487 57.8605L27.094 57.892L26.9734 57.94L26.9117 57.9615L26.779 57.9866L26.7109 57.9959L26.5668 57.9952L26.493 57.9909M26.3383 53.5869L26.2581 53.569L26.112 53.5023L26.0417 53.4651L25.9175 53.3662L25.8586 53.3132L25.76 53.1878L25.7146 53.1226L25.6443 52.9772L25.6124 52.9027L25.5734 52.7443L25.5578 52.6641L25.5521 52.4986L25.5535 52.4162L25.584 52.2514L25.6741 52.0114L25.711 51.9412L25.8395 51.8036L25.9111 51.737L26.0857 51.6202L26.1758 51.5665L26.3653 51.4898L26.6314 51.4397H26.7009L26.8365 51.4619L26.9032 51.4769L27.0309 51.5264L27.0933 51.5536L27.2104 51.6267L27.2665 51.6654L27.3687 51.7585L27.4176 51.8072L27.5013 51.9161L27.5411 51.9727L27.6035 52.0959L27.6319 52.1583L27.6702 52.2915L27.6951 52.4979L27.6965 52.591L27.6702 52.7651L27.6525 52.8496L27.5908 53.0051L27.556 53.0796L27.4637 53.2129L27.4141 53.2759L27.2949 53.3834L27.2324 53.4335L27.0919 53.5109L27.0188 53.546L26.8606 53.5912L26.779 53.6091L26.6073 53.6184L26.52 53.6177M26.3383 49.2165L26.2844 49.2044L26.1794 49.1628L26.1283 49.1399L26.0311 49.079L25.9835 49.046L25.8962 48.9686L25.8537 48.9278L25.7785 48.8361L25.7423 48.7895L25.6812 48.6871L25.6529 48.6348L25.6074 48.5237L25.5876 48.4678L25.5613 48.3525L25.545 48.1763V48.0967L25.5656 47.9499L25.5783 47.8782L25.6231 47.7478L25.6479 47.6848L25.7132 47.5716L25.7479 47.5171L25.831 47.4211L25.8743 47.376L25.9722 47.2986L26.0226 47.2621L26.1311 47.2026L26.1865 47.1754L26.3036 47.1353L26.3632 47.1173L26.4845 47.0966L26.5462 47.088L26.6697 47.0873L26.7314 47.0887L26.8535 47.1073L26.9138 47.1195L27.0316 47.1589L27.0891 47.1811L27.1991 47.2413L27.2523 47.2742L27.3509 47.3559L27.3985 47.3996L27.4829 47.5028L27.5226 47.5572L27.5893 47.6833L27.6667 47.8976L27.6929 47.9971L27.7036 48.1913L27.7029 48.2866L27.6638 48.4671L27.639 48.5553L27.5567 48.7157L27.5106 48.7931L27.3914 48.9271L27.3275 48.9909L27.1771 49.0926L27.099 49.1392L26.9244 49.2022L26.8343 49.228L26.6413 49.2466L26.5434 49.2495M26.1425 44.7789L26.0935 44.7588L25.9793 44.6685L25.9211 44.6177L25.8047 44.4865L25.7494 44.4192L25.6571 44.2781L25.572 44.086L25.5549 44.0173L25.5478 43.8554L25.5485 43.7722L25.5734 43.5974L25.5897 43.5107L25.6429 43.3481L25.7494 43.1411L25.7856 43.0895L25.8672 42.9999L25.909 42.9576L25.9998 42.8874L26.0928 42.8215L26.2979 42.7434L26.4022 42.7133L26.6179 42.7019L26.7258 42.704L26.9358 42.7542L27.0387 42.7871L27.2267 42.8939L27.3169 42.9533L27.4673 43.1117L27.5013 43.1539L27.5602 43.2478L27.5879 43.2958L27.6312 43.4011L27.6511 43.4549L27.6773 43.5695L27.6951 43.7536L27.6965 43.8568L27.6638 44.0531L27.6418 44.1484L27.5652 44.3218L27.5219 44.4049L27.4048 44.5489L27.1884 44.723L27.1607 44.7394L27.0905 44.7681L27.0536 44.781L26.9677 44.8025L26.8797 44.8226L26.6796 44.8405L26.5796 44.8462L26.3844 44.834L26.2915 44.824L26.1425 44.7789Z" fill="#232323"/>
<path d="M11.8867 65.2134L11.8853 65.1991L11.8811 65.1554L11.8789 65.1317L11.8725 65.0687L11.8654 65.0013L11.8456 64.8129L11.8349 64.7112L11.8094 64.4618L11.7959 64.33L11.764 64.0277L11.7477 63.8715L11.7115 63.5262L11.693 63.3499L11.6533 62.9716L11.6334 62.7789L11.5908 62.3763L11.5263 61.7565L11.4617 61.1425L11.3368 59.9575L11.3063 59.6659L11.2467 59.0956L11.2169 58.8126L11.1594 58.2617L11.131 57.9894L11.0757 57.46L11.048 57.1985L10.9948 56.6927L10.9692 56.4433L10.9188 55.9633L10.894 55.7269L10.8472 55.2741L10.8238 55.052L10.7798 54.6293L10.7585 54.4215L10.7173 54.0303L10.6975 53.8391L10.6606 53.4816L10.6428 53.3067L10.6095 52.9843L10.5931 52.8282L10.564 52.5437L10.5499 52.4062L10.5243 52.1611L10.5122 52.0436L10.4917 51.8395L10.4661 51.583L10.4505 51.4304L10.4143 51.0757L10.3959 50.8937L10.3568 50.5147L10.337 50.3263L10.2994 49.9681L10.2909 49.8821L10.2738 49.7224L10.2504 49.5053L10.2433 49.4386L10.2249 49.2624L10.2142 49.1685L10.1901 48.9429L10.178 48.8254L10.1496 48.5603L10.1347 48.4234L10.1035 48.1275L10.0709 47.8259L10.0006 47.1682L9.8949 46.1738L9.87787 46.0111L9.8431 45.6981L9.82607 45.5433L9.79272 45.251L9.7764 45.1084L9.74447 44.8448L9.72957 44.7165L9.70047 44.4873L9.68699 44.3776L9.66145 44.1899L9.64938 44.1018L9.6288 43.9614L9.61887 43.8983L9.60397 43.8131L9.58694 43.7529L9.577 43.7429L9.53443 43.7386L9.50959 43.7393L9.44076 43.7543L9.40386 43.7644L9.31233 43.7973L9.26407 43.816L9.1548 43.864L9.04197 43.9163L8.77942 44.0595L8.36289 44.3175L8.23871 44.4006L7.99887 44.5897L7.88036 44.6879L7.65258 44.9028L7.54047 45.0139L7.32759 45.2524L7.22328 45.3742L7.02814 45.6329L6.93306 45.764L6.75779 46.0384L6.67335 46.1774L6.52078 46.4647L6.44769 46.6094L6.32068 46.9053L6.16173 47.3559L5.99852 47.8933L5.97723 56.6662L5.97581 57.2694L5.97369 58.4301L5.97298 58.7159L5.97227 59.2719V59.547L5.97156 60.08V60.343V60.8502V61.1003V61.5781V61.8131V62.2595L5.97227 62.478V62.8892L5.97298 63.0906L5.97369 63.4631L5.97439 63.6444L5.9751 63.9768L5.97581 64.1373L5.97723 64.4253L5.97794 64.5629L5.97936 64.8036L5.98007 64.9182L5.98149 65.1081L5.98291 65.1969L5.98433 65.3345L5.98575 65.3961L5.98788 65.477L5.99143 65.5322L5.99497 65.5415L6.03116 65.5573L6.05458 65.5652L6.13831 65.5781L6.18727 65.5845L6.32706 65.5945L6.40512 65.5988L6.61161 65.6067L6.66767 65.6082L6.79327 65.6117L6.85855 65.6132L7.00473 65.6153L7.07994 65.6167L7.2467 65.6189L7.33256 65.6196L7.5206 65.6211L7.61781 65.6218L7.82927 65.6232L7.93784 65.6239L8.17343 65.6246H8.29477L8.5559 65.6253H8.9774H11.9279L11.8867 65.2134Z" fill="#232323"/>
<path d="M48.2875 56.8489V48.1082L48.13 47.5114L48.0952 47.3796L48.0122 47.1209L47.9682 46.9927L47.8681 46.7412L47.8156 46.6165L47.6992 46.3744L47.6389 46.254L47.5062 46.0212L47.4381 45.9065L47.2905 45.6852L47.2146 45.5763L47.0528 45.3671L46.9698 45.2639L46.7945 45.0683L46.5163 44.7918L46.4014 44.6857L46.1218 44.4672L45.9778 44.3597L45.6783 44.1627L45.6052 44.1169L45.4626 44.033L45.3931 43.9936L45.2632 43.9263L45.2 43.8955L45.0886 43.8489L44.9496 43.8052L44.7374 43.7622L44.6097 45.0038L44.5919 45.1743L44.5515 45.5648L44.5309 45.7647L44.489 46.1752L44.4677 46.3787L44.4287 46.7613L44.4195 46.8523L44.4017 47.0213L44.379 47.2485L44.357 47.462L44.3102 47.9147L44.2868 48.1454L44.2371 48.6269L44.1867 49.1148L44.0796 50.1422L44.0264 50.6602L43.9178 51.7033L43.8639 52.2213L43.7596 53.2186L43.734 53.4622L43.6843 53.93L43.6602 54.1607L43.6148 54.5963L43.5921 54.8091L43.5502 55.2053L43.5304 55.3973L43.4935 55.7455L43.475 55.9125L43.4438 56.2055L43.4296 56.3445L43.4048 56.5745L43.3927 56.6805L43.3757 56.8403L43.3714 56.8754L43.365 56.9313L43.3579 56.9921L43.3487 57.071L43.3253 57.2737L43.3132 57.3805L43.2877 57.6176L43.2742 57.738L43.2494 57.9801L43.2146 58.3176L43.2068 58.395L43.1891 58.5769L43.1798 58.6715L43.1585 58.8836L43.1472 58.9932L43.1238 59.2311L43.1117 59.3528L43.0855 59.6108L43.0592 59.8737L43.0017 60.4383L42.9733 60.7234L42.9144 61.303L42.8853 61.5903L42.8286 62.1441L42.8151 62.2788L42.7888 62.536L42.7761 62.6621L42.7519 62.8993L42.7399 63.0146L42.7179 63.2252L42.7079 63.327L42.6895 63.5068L42.6803 63.5928L42.6654 63.7368L42.6476 63.9059L42.6377 63.9997L42.6157 64.2111L42.6051 64.3193L42.5831 64.5392L42.5724 64.6481L42.5525 64.8509L42.5291 65.1066L42.483 65.6268L45.3852 65.6082L48.2875 65.5895V56.8489Z" fill="#232323"/>
<ellipse cx="22.4828" cy="21.7033" rx="1.27951" ry="1.27951" fill="#232323"/>
<ellipse cx="31.9878" cy="21.7033" rx="1.27951" ry="1.27951" fill="#232323"/>
<path d="M25.2246 28.4663C26.8728 28.9851 27.4054 28.9534 28.8803 28.4663" stroke="#232323" stroke-linecap="round"/>
</g>
</svg>
