<svg width="139" height="140" viewBox="0 0 139 140" fill="none" xmlns="http://www.w3.org/2000/svg">
<g opacity="0.5" clip-path="url(#clip0_1464_481)">
<path d="M85 170C73.4967 170 62.7229 164.652 55.76 155.585C44.4267 157.059 33.0296 153.234 24.8979 145.102C16.7662 136.97 12.9342 125.573 14.4146 114.24C5.355 107.277 0.00708008 96.5104 0.00708008 85C0.00708008 73.4896 5.355 62.7229 14.4146 55.76C12.9342 44.4267 16.7662 33.0296 24.8979 24.8979C33.0296 16.7592 44.4338 12.9129 55.76 14.4146C62.7229 5.34792 73.4967 0 85 0C96.5033 0 107.277 5.34792 114.24 14.4146C125.559 12.9129 136.963 16.7592 145.102 24.8979C153.241 33.0367 157.066 44.4267 155.585 55.76C164.645 62.7229 169.993 73.4896 169.993 85C169.993 96.5104 164.645 107.277 155.585 114.24C157.066 125.573 153.234 136.97 145.102 145.102C136.963 153.234 125.552 157.059 114.24 155.585C107.277 164.652 96.5033 170 85 170ZM58.9758 147.815L60.2862 149.756C65.8467 157.994 75.0833 162.91 85 162.91C94.9167 162.91 104.153 157.994 109.714 149.756L111.024 147.815L113.326 148.261C123.059 150.16 133.075 147.1 140.094 140.094C147.107 133.082 150.16 123.073 148.261 113.319L147.822 111.017L149.763 109.707C157.994 104.153 162.91 94.9167 162.91 85C162.91 75.0833 157.994 65.8467 149.763 60.2933L147.822 58.9829L148.261 56.6808C150.16 46.9271 147.107 36.9113 140.094 29.9058C133.075 22.8933 123.059 19.8404 113.326 21.7388L111.024 22.185L109.714 20.2442C104.153 12.0063 94.9167 7.09042 85 7.09042C75.0833 7.09042 65.8467 12.0063 60.2862 20.2442L58.9758 22.185L56.6738 21.7388C46.9483 19.8333 36.9183 22.9004 29.9058 29.9058C22.8933 36.9113 19.8404 46.9271 21.7387 56.6808L22.1779 58.9829L20.2371 60.2933C12.0062 65.8467 7.09041 75.0833 7.09041 85C7.09041 94.9167 12.0062 104.153 20.2371 109.707L22.1779 111.017L21.7387 113.319C19.8404 123.073 22.8933 133.089 29.9058 140.094C36.9183 147.1 46.9483 150.16 56.6738 148.261L58.9758 147.815ZM81.8621 103.155L122.896 62.73L117.93 57.6867L76.8754 98.1254C75.5013 99.5067 73.2558 99.5067 71.825 98.09L52.0413 78.9154L47.1183 84.0013L66.8596 103.14C68.935 105.216 71.6621 106.25 74.3821 106.25C77.1021 106.25 79.8079 105.216 81.8621 103.155Z" fill="#393939"/>
</g>
<defs>
<clipPath id="clip0_1464_481">
<rect width="170" height="170" fill="white"/>
</clipPath>
</defs>
</svg>
