<svg width="130" height="140" viewBox="0 0 130 140" fill="none" xmlns="http://www.w3.org/2000/svg">
<g opacity="0.5" clip-path="url(#clip0_1464_487)">
<path d="M53.125 92.0833C70.6988 92.0833 85 77.7821 85 60.2083C85 42.6346 70.6988 28.3333 53.125 28.3333C35.5513 28.3333 21.25 42.6346 21.25 60.2083C21.25 77.7821 35.5513 92.0833 53.125 92.0833ZM53.125 35.4167C66.7958 35.4167 77.9167 46.5375 77.9167 60.2083C77.9167 73.8792 66.7958 85 53.125 85C39.4542 85 28.3333 73.8792 28.3333 60.2083C28.3333 46.5375 39.4542 35.4167 53.125 35.4167ZM106.25 159.375V166.458C106.25 168.413 104.663 170 102.708 170C100.753 170 99.1667 168.413 99.1667 166.458V159.375C99.1667 133.988 78.5117 113.333 53.125 113.333C27.7383 113.333 7.08333 133.988 7.08333 159.375V166.458C7.08333 168.413 5.49667 170 3.54167 170C1.58667 170 0 168.413 0 166.458V159.375C0 130.078 23.8283 106.25 53.125 106.25C82.4217 106.25 106.25 130.078 106.25 159.375ZM170 126.53V131.042C170 132.997 168.413 134.583 166.458 134.583C164.503 134.583 162.917 132.997 162.917 131.042V126.53C162.917 103.629 144.287 85 121.387 85C111.775 85 103.785 87.1746 97.6508 91.4458C96.0358 92.565 93.8329 92.1754 92.7208 90.5675C91.6087 88.9596 91.9912 86.7567 93.5992 85.6375C100.945 80.5092 110.295 77.9167 121.387 77.9167C148.19 77.9167 170 99.7263 170 126.53ZM123.958 63.75C141.532 63.75 155.833 49.4487 155.833 31.875C155.833 14.3013 141.532 0 123.958 0C106.385 0 92.0833 14.3013 92.0833 31.875C92.0833 49.4487 106.385 63.75 123.958 63.75ZM123.958 7.08333C137.629 7.08333 148.75 18.2042 148.75 31.875C148.75 45.5458 137.629 56.6667 123.958 56.6667C110.288 56.6667 99.1667 45.5458 99.1667 31.875C99.1667 18.2042 110.288 7.08333 123.958 7.08333Z" fill="#393939"/>
</g>
<defs>
<clipPath id="clip0_1464_487">
<rect width="170" height="170" fill="white"/>
</clipPath>
</defs>
</svg>
