<svg width="160" height="160" viewBox="0 0 160 160" fill="none" xmlns="http://www.w3.org/2000/svg">
<g clip-path="url(#clip0_1464_502)">
<path d="M95 0C42.6154 0 0 42.6154 0 95C0 147.385 42.6154 190 95 190C147.385 190 190 147.385 190 95C190 42.6154 147.385 0 95 0ZM95 182.083C46.9854 182.083 7.91667 143.015 7.91667 95C7.91667 46.9854 46.9854 7.91667 95 7.91667C143.015 7.91667 182.083 46.9854 182.083 95C182.083 143.015 143.015 182.083 95 182.083ZM126.667 113.794C126.667 125.257 117.341 134.583 105.877 134.583H98.9583V146.458C98.9583 148.643 97.185 150.417 95 150.417C92.815 150.417 91.0417 148.643 91.0417 146.458V134.583H83.7108C75.9604 134.583 68.7246 130.419 64.8533 123.698C63.7529 121.806 64.4021 119.383 66.3021 118.291C68.1862 117.183 70.6087 117.84 71.7092 119.74C74.1792 124.015 78.7867 126.667 83.7188 126.667H105.885C112.979 126.667 118.758 120.895 118.758 113.794C118.758 107.437 114.206 102.093 107.928 101.088L80.8371 96.7337C70.7038 95.1029 63.3413 86.4738 63.3413 76.2058C63.3413 64.7425 72.6671 55.4167 84.1304 55.4167H91.0496V43.5417C91.0496 41.3567 92.8229 39.5833 95.0079 39.5833C97.1929 39.5833 98.9662 41.3567 98.9662 43.5417V55.4167H106.297C114.048 55.4167 121.275 59.5887 125.155 66.3021C126.255 68.1942 125.606 70.6167 123.706 71.7092C121.838 72.7858 119.391 72.1604 118.299 70.2604C115.829 65.9854 111.221 63.3333 106.289 63.3333H84.1225C77.0292 63.3333 71.25 69.1046 71.25 76.2058C71.25 82.5629 75.8021 87.9067 82.08 88.9121L109.171 93.2663C119.304 94.8971 126.667 103.534 126.667 113.794Z" fill="#FFFFFF"/>
</g>
<defs>
<clipPath id="clip0_1464_502">
<rect width="190" height="190" fill="white"/>
</clipPath>
</defs>
</svg>
