<svg width="130" height="130" viewBox="0 0 130 130" fill="none" xmlns="http://www.w3.org/2000/svg">
<g clip-path="url(#clip0_1464_492)">
<path d="M85 170C38.1083 170 0 131.892 0 85C0 38.1083 38.1083 0 85 0C131.892 0 170 38.1083 170 85C170 131.892 131.892 170 85 170ZM85 7.08333C42.0042 7.08333 7.08333 42.0042 7.08333 85C7.08333 127.996 42.0042 162.917 85 162.917C127.996 162.917 162.917 127.996 162.917 85C162.917 42.0042 127.996 7.08333 85 7.08333ZM61.9083 120.417C60.4208 120.417 58.9333 119.921 57.6583 119C55.25 117.229 54.2583 114.042 55.1792 111.208L61.8375 89.8875L45.05 76.2167C42.7125 74.2333 41.9333 71.1167 42.925 68.3542C43.9167 65.5917 46.6083 63.75 49.5833 63.75H70.8333L78.3417 43.5625C79.3333 40.8708 81.9542 39.1708 85 39.1708C88.0458 39.1708 90.6667 40.8708 91.6583 43.5625L99.1667 63.75H120.417C123.392 63.75 126.083 65.5917 127.075 68.425C128.067 71.1875 127.287 74.375 125.021 76.2167L108.233 89.8875L115.175 110.996C116.096 113.829 115.175 117.017 112.767 118.788C110.358 120.629 107.1 120.771 104.621 119.142L85.1417 106.463L65.9458 119.283C64.7417 120.062 63.325 120.488 61.9792 120.488L61.9083 120.417ZM49.5833 70.7625L68.1417 85.85C69.275 86.7708 69.7 88.2583 69.275 89.675L61.9083 113.333L83.0167 99.2375C84.2208 98.4583 85.7083 98.4583 86.9125 99.2375L108.375 113.192L100.654 89.7458C100.158 88.3292 100.654 86.8417 101.787 85.9208L120.346 70.8333H96.6167C95.1292 70.8333 93.7833 69.9125 93.2875 68.4958L84.9292 45.9708L76.5708 68.4958C76.075 69.9125 74.7292 70.8333 73.2417 70.8333H49.5125L49.5833 70.7625Z" fill="#FFFFFF"/>
</g>
<defs>
<clipPath id="clip0_1464_492">
<rect width="170" height="170" fill="white"/>
</clipPath>
</defs>
</svg>
