<svg width="130" height="160" viewBox="0 0 130 160" fill="none" xmlns="http://www.w3.org/2000/svg">
<g opacity="0.5" clip-path="url(#clip0_1464_498)">
<path d="M85 85C108.439 85 127.5 65.9388 127.5 42.5C127.5 19.0613 108.439 0 85 0C61.5613 0 42.5 19.0613 42.5 42.5C42.5 65.9388 61.5613 85 85 85ZM85 7.08333C104.529 7.08333 120.417 22.9713 120.417 42.5C120.417 62.0288 104.529 77.9167 85 77.9167C65.4713 77.9167 49.5833 62.0288 49.5833 42.5C49.5833 22.9713 65.4713 7.08333 85 7.08333ZM148.75 162.917V166.458C148.75 168.413 147.163 170 145.208 170C143.253 170 141.667 168.413 141.667 166.458V162.917C141.667 137.856 125.311 116.542 102.715 109.09L92.3596 124.624L102.602 165.608C103.07 167.507 101.773 170.007 99.1667 170.007C97.5729 170.007 96.1279 168.938 95.7313 167.322L85.1063 124.823C84.8654 123.852 85.0425 122.832 85.595 122.003L95.4479 107.228C92.0621 106.597 88.57 106.257 85 106.257C81.43 106.257 77.945 106.59 74.5592 107.228L84.405 122.003C84.9575 122.832 85.1346 123.859 84.8937 124.823L74.2687 167.322C73.865 168.938 72.4271 170.007 70.8404 170.007C68.4463 170.007 66.9233 167.5 67.405 165.608L77.6475 124.624L67.2917 109.09C44.6958 116.542 28.3333 137.856 28.3333 162.917V166.458C28.3333 168.413 26.7467 170 24.7917 170C22.8367 170 21.25 168.413 21.25 166.458V162.917C21.25 127.769 49.8525 99.1667 85 99.1667C120.147 99.1667 148.75 127.769 148.75 162.917Z" fill="#393939"/>
</g>
<defs>
<clipPath id="clip0_1464_498">
<rect width="170" height="170" fill="white"/>
</clipPath>
</defs>
</svg>
