<svg width="60" height="60" viewBox="0 0 60 60" fill="none" xmlns="http://www.w3.org/2000/svg">
    <circle cx="30" cy="30" r="30" fill="#EAEAEA"/>
    <g opacity="0.7" clip-path="url(#clip0_1927_4225)">
    <path d="M36.875 28.7987C32.395 28.7987 28.75 32.4437 28.75 36.9237C28.75 41.3775 32.395 45 36.875 45C41.355 45 45 41.355 45 36.875C45 32.4212 41.355 28.7987 36.875 28.7987ZM36.875 43.75C33.085 43.75 30 40.6875 30 36.9237C30 33.1325 33.085 30.0487 36.875 30.0487C40.665 30.0487 43.75 33.1112 43.75 36.875C43.75 40.6663 40.665 43.75 36.875 43.75ZM38.5675 37.6825C38.8113 37.9263 38.8113 38.3225 38.5675 38.5662C38.445 38.6888 38.285 38.7488 38.125 38.7488C37.965 38.7488 37.805 38.6875 37.6825 38.5662L36.4325 37.3162C36.315 37.1988 36.25 37.04 36.25 36.8738V34.3737C36.25 34.0287 36.53 33.7487 36.875 33.7487C37.22 33.7487 37.5 34.0287 37.5 34.3737V36.615L38.5675 37.6825ZM39.375 17.5H37.5V15.625C37.5 15.28 37.22 15 36.875 15C36.53 15 36.25 15.28 36.25 15.625V17.5H23.75V15.625C23.75 15.28 23.47 15 23.125 15C22.78 15 22.5 15.28 22.5 15.625V17.5H20.625C17.5238 17.5 15 20.0238 15 23.125V39.375C15 42.4762 17.5238 45 20.625 45H28.125C28.47 45 28.75 44.72 28.75 44.375C28.75 44.03 28.47 43.75 28.125 43.75H20.625C18.2125 43.75 16.25 41.7875 16.25 39.375V26.25H43.75V28.125C43.75 28.47 44.03 28.75 44.375 28.75C44.72 28.75 45 28.47 45 28.125V23.125C45 20.0238 42.4762 17.5 39.375 17.5ZM16.25 25V23.125C16.25 20.7125 18.2125 18.75 20.625 18.75H39.375C41.7875 18.75 43.75 20.7125 43.75 23.125V25H16.25Z" fill="#232323"/>
    </g>
    <defs>
    <clipPath id="clip0_1927_4225">
    <rect width="30" height="30" fill="white" transform="translate(15 15)"/>
    </clipPath>
    </defs>
 </svg>   