<svg width="80" height="80" viewBox="0 0 80 80" fill="none" xmlns="http://www.w3.org/2000/svg">
<g opacity="0.2" clip-path="url(#clip0_3019_2373)">
<rect width="80" height="80" fill="white"/>
<path d="M40 80C17.9333 80 0 62.0667 0 40C0 17.9333 17.9333 0 40 0C62.0667 0 80 17.9333 80 40C80 62.0667 62.0667 80 40 80ZM40 3.33333C19.7667 3.33333 3.33333 19.7667 3.33333 40C3.33333 60.2333 19.7667 76.6667 40 76.6667C60.2333 76.6667 76.6667 60.2333 76.6667 40C76.6667 19.7667 60.2333 3.33333 40 3.33333ZM29.1333 56.6667C28.4333 56.6667 27.7333 56.4333 27.1333 56C26 55.1667 25.5333 53.6667 25.9667 52.3333L29.1 42.3L21.2 35.8667C20.1 34.9333 19.7333 33.4667 20.2 32.1667C20.6667 30.8667 21.9333 30 23.3333 30H33.3333L36.8667 20.5C37.3333 19.2333 38.5667 18.4333 40 18.4333C41.4333 18.4333 42.6667 19.2333 43.1333 20.5L46.6667 30H56.6667C58.0667 30 59.3333 30.8667 59.8 32.2C60.2667 33.5 59.9 35 58.8333 35.8667L50.9333 42.3L54.2 52.2333C54.6333 53.5667 54.2 55.0667 53.0667 55.9C51.9333 56.7667 50.4 56.8333 49.2333 56.0667L40.0667 50.1L31.0333 56.1333C30.4667 56.5 29.8 56.7 29.1667 56.7L29.1333 56.6667ZM23.3333 33.3L32.0667 40.4C32.6 40.8333 32.8 41.5333 32.6 42.2L29.1333 53.3333L39.0667 46.7C39.6333 46.3333 40.3333 46.3333 40.9 46.7L51 53.2667L47.3667 42.2333C47.1333 41.5667 47.3667 40.8667 47.9 40.4333L56.6333 33.3333H45.4667C44.7667 33.3333 44.1333 32.9 43.9 32.2333L39.9667 21.6333L36.0333 32.2333C35.8 32.9 35.1667 33.3333 34.4667 33.3333H23.3L23.3333 33.3Z" fill="black"/>
</g>
<defs>
<clipPath id="clip0_3019_2373">
<rect width="80" height="80" fill="white"/>
</clipPath>
</defs>
</svg>
